<svg id="visual" viewBox="0 0 900 600" width="900" height="600" xmlns="http://www.w3.org/2000/svg" xmlns:xlink="http://www.w3.org/1999/xlink" version="1.1"><rect x="0" y="0" width="900" height="600" fill="#ffffff"></rect><path d="M0 106L15 92.5C30 79 60 52 90 54.3C120 56.7 150 88.3 180 101.5C210 114.7 240 109.3 270 97.5C300 85.7 330 67.3 360 61C390 54.7 420 60.3 450 57.3C480 54.3 510 42.7 540 34.7C570 26.7 600 22.3 630 29.5C660 36.7 690 55.3 720 74.5C750 93.7 780 113.3 810 103.8C840 94.3 870 55.7 885 36.3L900 17L900 601L885 601C870 601 840 601 810 601C780 601 750 601 720 601C690 601 660 601 630 601C600 601 570 601 540 601C510 601 480 601 450 601C420 601 390 601 360 601C330 601 300 601 270 601C240 601 210 601 180 601C150 601 120 601 90 601C60 601 30 601 15 601L0 601Z" fill="#ff5f54"></path><path d="M0 83L15 88.5C30 94 60 105 90 116.8C120 128.7 150 141.3 180 139.2C210 137 240 120 270 124.7C300 129.3 330 155.7 360 158.7C390 161.7 420 141.3 450 137.5C480 133.7 510 146.3 540 144.2C570 142 600 125 630 113.7C660 102.3 690 96.7 720 116.2C750 135.7 780 180.3 810 182.2C840 184 870 143 885 122.5L900 102L900 601L885 601C870 601 840 601 810 601C780 601 750 601 720 601C690 601 660 601 630 601C600 601 570 601 540 601C510 601 480 601 450 601C420 601 390 601 360 601C330 601 300 601 270 601C240 601 210 601 180 601C150 601 120 601 90 601C60 601 30 601 15 601L0 601Z" fill="#fb4564"></path><path d="M0 232L15 230.5C30 229 60 226 90 227C120 228 150 233 180 241.5C210 250 240 262 270 251.8C300 241.7 330 209.3 360 199.2C390 189 420 201 450 195.2C480 189.3 510 165.7 540 160.3C570 155 600 168 630 183C660 198 690 215 720 220.2C750 225.3 780 218.7 810 215C840 211.3 870 210.7 885 210.3L900 210L900 601L885 601C870 601 840 601 810 601C780 601 750 601 720 601C690 601 660 601 630 601C600 601 570 601 540 601C510 601 480 601 450 601C420 601 390 601 360 601C330 601 300 601 270 601C240 601 210 601 180 601C150 601 120 601 90 601C60 601 30 601 15 601L0 601Z" fill="#f12b75"></path><path d="M0 218L15 217.7C30 217.3 60 216.7 90 232.7C120 248.7 150 281.3 180 301.2C210 321 240 328 270 321C300 314 330 293 360 285.7C390 278.3 420 284.7 450 277C480 269.3 510 247.7 540 238.5C570 229.3 600 232.7 630 250C660 267.3 690 298.7 720 312.7C750 326.7 780 323.3 810 306.2C840 289 870 258 885 242.5L900 227L900 601L885 601C870 601 840 601 810 601C780 601 750 601 720 601C690 601 660 601 630 601C600 601 570 601 540 601C510 601 480 601 450 601C420 601 390 601 360 601C330 601 300 601 270 601C240 601 210 601 180 601C150 601 120 601 90 601C60 601 30 601 15 601L0 601Z" fill="#e01488"></path><path d="M0 341L15 343.2C30 345.3 60 349.7 90 342.8C120 336 150 318 180 314.3C210 310.7 240 321.3 270 325.7C300 330 330 328 360 321.5C390 315 420 304 450 314.3C480 324.7 510 356.3 540 361C570 365.7 600 343.3 630 328.3C660 313.3 690 305.7 720 312.5C750 319.3 780 340.7 810 356C840 371.3 870 380.7 885 385.3L900 390L900 601L885 601C870 601 840 601 810 601C780 601 750 601 720 601C690 601 660 601 630 601C600 601 570 601 540 601C510 601 480 601 450 601C420 601 390 601 360 601C330 601 300 601 270 601C240 601 210 601 180 601C150 601 120 601 90 601C60 601 30 601 15 601L0 601Z" fill="#c80f9b"></path><path d="M0 365L15 371.2C30 377.3 60 389.7 90 401.7C120 413.7 150 425.3 180 418.2C210 411 240 385 270 378.7C300 372.3 330 385.7 360 390C390 394.3 420 389.7 450 398C480 406.3 510 427.7 540 429.5C570 431.3 600 413.7 630 405.7C660 397.7 690 399.3 720 395.7C750 392 780 383 810 386.7C840 390.3 870 406.7 885 414.8L900 423L900 601L885 601C870 601 840 601 810 601C780 601 750 601 720 601C690 601 660 601 630 601C600 601 570 601 540 601C510 601 480 601 450 601C420 601 390 601 360 601C330 601 300 601 270 601C240 601 210 601 180 601C150 601 120 601 90 601C60 601 30 601 15 601L0 601Z" fill="#a71fad"></path><path d="M0 530L15 528.8C30 527.7 60 525.3 90 511.8C120 498.3 150 473.7 180 465.3C210 457 240 465 270 459.2C300 453.3 330 433.7 360 443.2C390 452.7 420 491.3 450 496.7C480 502 510 474 540 458C570 442 600 438 630 433.5C660 429 690 424 720 439.7C750 455.3 780 491.7 810 494.5C840 497.3 870 466.7 885 451.3L900 436L900 601L885 601C870 601 840 601 810 601C780 601 750 601 720 601C690 601 660 601 630 601C600 601 570 601 540 601C510 601 480 601 450 601C420 601 390 601 360 601C330 601 300 601 270 601C240 601 210 601 180 601C150 601 120 601 90 601C60 601 30 601 15 601L0 601Z" fill="#7930bc"></path><path d="M0 510L15 518.8C30 527.7 60 545.3 90 540.8C120 536.3 150 509.7 180 502.8C210 496 240 509 270 524.2C300 539.3 330 556.7 360 553.8C390 551 420 528 450 522.8C480 517.7 510 530.3 540 543.8C570 557.3 600 571.7 630 563.2C660 554.7 690 523.3 720 505.2C750 487 780 482 810 481.7C840 481.3 870 485.7 885 487.8L900 490L900 601L885 601C870 601 840 601 810 601C780 601 750 601 720 601C690 601 660 601 630 601C600 601 570 601 540 601C510 601 480 601 450 601C420 601 390 601 360 601C330 601 300 601 270 601C240 601 210 601 180 601C150 601 120 601 90 601C60 601 30 601 15 601L0 601Z" fill="#243cc7"></path></svg>