<?xml version="1.0" standalone="no"?><svg xmlns="http://www.w3.org/2000/svg" viewBox="0 0 1440 320"><path fill="#0099ff" fill-opacity="1" d="M0,0L18.5,10.7C36.9,21,74,43,111,69.3C147.7,96,185,128,222,170.7C258.5,213,295,267,332,261.3C369.2,256,406,192,443,181.3C480,171,517,213,554,229.3C590.8,245,628,235,665,213.3C701.5,192,738,160,775,133.3C812.3,107,849,85,886,96C923.1,107,960,149,997,165.3C1033.8,181,1071,171,1108,154.7C1144.6,139,1182,117,1218,112C1255.4,107,1292,117,1329,138.7C1366.2,160,1403,192,1422,208L1440,224L1440,320L1421.5,320C1403.1,320,1366,320,1329,320C1292.3,320,1255,320,1218,320C1181.5,320,1145,320,1108,320C1070.8,320,1034,320,997,320C960,320,923,320,886,320C849.2,320,812,320,775,320C738.5,320,702,320,665,320C627.7,320,591,320,554,320C516.9,320,480,320,443,320C406.2,320,369,320,332,320C295.4,320,258,320,222,320C184.6,320,148,320,111,320C73.8,320,37,320,18,320L0,320Z"></path></svg>