<?xml version="1.0" standalone="no"?><svg xmlns="http://www.w3.org/2000/svg" viewBox="0 0 1440 320"><path fill="#0099ff" fill-opacity="1" d="M0,32L14.1,42.7C28.2,53,56,75,85,90.7C112.9,107,141,117,169,122.7C197.6,128,226,128,254,117.3C282.4,107,311,85,339,80C367.1,75,395,85,424,106.7C451.8,128,480,160,508,186.7C536.5,213,565,235,593,208C621.2,181,649,107,678,112C705.9,117,734,203,762,208C790.6,213,819,139,847,122.7C875.3,107,904,149,932,149.3C960,149,988,107,1016,85.3C1044.7,64,1073,64,1101,74.7C1129.4,85,1158,107,1186,101.3C1214.1,96,1242,64,1271,53.3C1298.8,43,1327,53,1355,80C1383.5,107,1412,149,1426,170.7L1440,192L1440,320L1425.9,320C1411.8,320,1384,320,1355,320C1327.1,320,1299,320,1271,320C1242.4,320,1214,320,1186,320C1157.6,320,1129,320,1101,320C1072.9,320,1045,320,1016,320C988.2,320,960,320,932,320C903.5,320,875,320,847,320C818.8,320,791,320,762,320C734.1,320,706,320,678,320C649.4,320,621,320,593,320C564.7,320,536,320,508,320C480,320,452,320,424,320C395.3,320,367,320,339,320C310.6,320,282,320,254,320C225.9,320,198,320,169,320C141.2,320,113,320,85,320C56.5,320,28,320,14,320L0,320Z"></path></svg>